<svg width="471" height="82" viewBox="0 0 471 82" fill="none" xmlns="http://www.w3.org/2000/svg">
<path d="M152.448 56V50.12H158.928V33.88H152.448V28H172.288V33.88H165.728V50.12H172.288V56H152.448ZM184.644 56V34.76H190.724L190.964 40.12L189.324 40.52C189.671 39.4267 190.284 38.4133 191.164 37.48C192.044 36.5467 193.124 35.7867 194.404 35.2C195.711 34.6133 197.164 34.32 198.764 34.32C200.684 34.32 202.311 34.7067 203.644 35.48C204.978 36.2267 205.991 37.28 206.684 38.64C207.404 39.9733 207.764 41.52 207.764 43.28V56H201.324V44.44C201.324 43.4533 201.124 42.6133 200.724 41.92C200.324 41.2 199.764 40.6533 199.044 40.28C198.324 39.9067 197.471 39.72 196.484 39.72C195.658 39.72 194.898 39.8667 194.204 40.16C193.538 40.4533 192.964 40.84 192.484 41.32C192.031 41.8 191.671 42.32 191.404 42.88C191.164 43.4133 191.044 43.96 191.044 44.52V56H187.884C186.898 56 186.138 56 185.604 56C185.071 56 184.751 56 184.644 56ZM228.311 56.44C226.098 56.44 224.165 55.9733 222.511 55.04C220.858 54.1067 219.565 52.8 218.631 51.12C217.698 49.44 217.231 47.5333 217.231 45.4C217.231 43.24 217.711 41.3333 218.671 39.68C219.631 38 220.965 36.6933 222.671 35.76C224.405 34.8 226.391 34.32 228.631 34.32C229.911 34.32 231.098 34.48 232.191 34.8C233.311 35.0933 234.298 35.5067 235.151 36.04C236.031 36.5467 236.725 37.12 237.231 37.76C237.765 38.4 238.071 39.0533 238.151 39.72L236.631 40.08V26.4H243.071V56H237.111L236.751 50.64L238.031 51.04C237.951 51.7067 237.631 52.36 237.071 53C236.538 53.64 235.831 54.2133 234.951 54.72C234.071 55.2267 233.058 55.64 231.911 55.96C230.791 56.28 229.591 56.44 228.311 56.44ZM230.191 50.96C231.525 50.96 232.685 50.7333 233.671 50.28C234.685 49.8 235.458 49.1467 235.991 48.32C236.525 47.4667 236.791 46.4933 236.791 45.4C236.791 44.28 236.525 43.3067 235.991 42.48C235.458 41.6533 234.685 41 233.671 40.52C232.685 40.04 231.525 39.8 230.191 39.8C228.858 39.8 227.698 40.04 226.711 40.52C225.751 41 224.991 41.6533 224.431 42.48C223.871 43.3067 223.591 44.28 223.591 45.4C223.591 46.4933 223.871 47.4667 224.431 48.32C224.991 49.1467 225.751 49.8 226.711 50.28C227.698 50.7333 228.858 50.96 230.191 50.96ZM263.746 56.44C261.959 56.44 260.399 56.0533 259.066 55.28C257.759 54.48 256.746 53.3333 256.026 51.84C255.332 50.32 254.986 48.4933 254.986 46.36V34.76H261.386V45.2C261.386 46.4267 261.546 47.4533 261.866 48.28C262.212 49.1067 262.746 49.7333 263.466 50.16C264.186 50.5867 265.106 50.8 266.226 50.8C266.999 50.8 267.719 50.68 268.386 50.44C269.052 50.2 269.639 49.8533 270.146 49.4C270.679 48.9467 271.092 48.4133 271.386 47.8C271.679 47.16 271.826 46.44 271.826 45.64V34.76H278.226V56H272.226L271.946 51.64L273.106 51.16C272.786 52.0667 272.199 52.92 271.346 53.72C270.492 54.52 269.412 55.1733 268.106 55.68C266.826 56.1867 265.372 56.44 263.746 56.44ZM299.338 56.4C296.832 56.4 294.578 56.0667 292.578 55.4C290.578 54.7333 288.952 53.76 287.698 52.48L291.618 48.96C292.552 49.84 293.712 50.52 295.098 51C296.485 51.48 297.992 51.72 299.618 51.72C300.125 51.72 300.618 51.6933 301.098 51.64C301.578 51.5867 302.005 51.48 302.378 51.32C302.752 51.16 303.045 50.9733 303.258 50.76C303.498 50.5467 303.618 50.2667 303.618 49.92C303.618 49.4133 303.232 49.0267 302.458 48.76C301.952 48.5467 301.298 48.3733 300.498 48.24C299.698 48.08 298.872 47.9333 298.018 47.8C296.392 47.5333 294.978 47.2267 293.778 46.88C292.578 46.5333 291.552 46.0667 290.698 45.48C290.005 44.9467 289.458 44.32 289.058 43.6C288.658 42.8533 288.458 41.96 288.458 40.92C288.458 39.88 288.725 38.96 289.258 38.16C289.818 37.36 290.578 36.6667 291.538 36.08C292.525 35.4933 293.645 35.0533 294.898 34.76C296.178 34.4667 297.512 34.32 298.898 34.32C300.232 34.32 301.565 34.44 302.898 34.68C304.232 34.92 305.485 35.28 306.658 35.76C307.858 36.2133 308.912 36.8133 309.818 37.56L306.578 41.48C305.938 41 305.178 40.5733 304.298 40.2C303.418 39.8 302.472 39.4933 301.458 39.28C300.472 39.04 299.485 38.92 298.498 38.92C297.992 38.92 297.512 38.9467 297.058 39C296.605 39.0533 296.192 39.1467 295.818 39.28C295.445 39.4133 295.152 39.5867 294.938 39.8C294.725 40.0133 294.618 40.2667 294.618 40.56C294.618 40.7733 294.672 40.9867 294.778 41.2C294.912 41.3867 295.112 41.56 295.378 41.72C295.832 41.96 296.485 42.1733 297.338 42.36C298.192 42.5467 299.178 42.7467 300.298 42.96C302.138 43.28 303.712 43.6667 305.018 44.12C306.325 44.5467 307.378 45.0533 308.178 45.64C308.792 46.12 309.245 46.6667 309.538 47.28C309.832 47.8933 309.978 48.5867 309.978 49.36C309.978 50.7733 309.512 52.0133 308.578 53.08C307.672 54.12 306.432 54.9333 304.858 55.52C303.285 56.1067 301.445 56.4 299.338 56.4ZM324.332 56V34H314.252V28H341.452V34H331.132V56H324.332ZM348.394 56V34.76H354.474L354.754 42.36L353.034 41.88C353.434 40.4667 354.088 39.2 354.994 38.08C355.928 36.9333 357.008 36.0267 358.234 35.36C359.488 34.6667 360.794 34.32 362.154 34.32C362.981 34.32 363.754 34.4 364.474 34.56C365.221 34.72 365.874 34.9467 366.434 35.24L364.674 42.16C364.194 41.84 363.554 41.5867 362.754 41.4C361.954 41.2133 361.168 41.12 360.394 41.12C359.514 41.12 358.728 41.2533 358.034 41.52C357.341 41.7867 356.754 42.16 356.274 42.64C355.794 43.12 355.434 43.6667 355.194 44.28C354.954 44.8667 354.834 45.48 354.834 46.12V56H348.394ZM383.473 56.36C381.207 56.36 379.22 55.8933 377.513 54.96C375.833 54 374.513 52.6933 373.553 51.04C372.62 49.3867 372.153 47.5067 372.153 45.4C372.153 43.24 372.633 41.3333 373.593 39.68C374.58 38 375.927 36.6933 377.633 35.76C379.34 34.8 381.327 34.32 383.593 34.32C384.9 34.32 386.1 34.48 387.193 34.8C388.313 35.12 389.287 35.5467 390.113 36.08C390.967 36.6133 391.647 37.2 392.153 37.84C392.687 38.4533 393.033 39.08 393.193 39.72L391.673 39.8V34.76H398.033V56H391.553V50.36L392.913 50.72C392.807 51.3867 392.473 52.0533 391.913 52.72C391.38 53.3867 390.687 54 389.833 54.56C389.007 55.0933 388.047 55.5333 386.953 55.88C385.86 56.2 384.7 56.36 383.473 56.36ZM385.153 50.96C386.513 50.96 387.673 50.7333 388.633 50.28C389.62 49.8 390.38 49.1467 390.913 48.32C391.473 47.4667 391.753 46.4933 391.753 45.4C391.753 44.2533 391.473 43.2667 390.913 42.44C390.38 41.6133 389.62 40.96 388.633 40.48C387.673 40 386.513 39.76 385.153 39.76C383.82 39.76 382.66 40 381.673 40.48C380.687 40.96 379.913 41.6133 379.353 42.44C378.793 43.2667 378.513 44.2533 378.513 45.4C378.513 46.4933 378.793 47.4667 379.353 48.32C379.913 49.1467 380.687 49.8 381.673 50.28C382.66 50.7333 383.82 50.96 385.153 50.96ZM420.785 56.4C418.278 56.4 416.065 55.92 414.145 54.96C412.225 54 410.705 52.6933 409.585 51.04C408.491 49.36 407.945 47.4667 407.945 45.36C407.945 43.2267 408.491 41.3333 409.585 39.68C410.678 38.0267 412.171 36.72 414.065 35.76C415.958 34.8 418.105 34.32 420.505 34.32C422.771 34.32 424.865 34.64 426.785 35.28C428.705 35.92 430.291 36.8267 431.545 38L428.025 42.52C427.491 42.04 426.838 41.6 426.065 41.2C425.318 40.8 424.518 40.48 423.665 40.24C422.838 40 421.958 39.88 421.025 39.88C419.691 39.88 418.531 40.12 417.545 40.6C416.558 41.0533 415.785 41.6933 415.225 42.52C414.691 43.32 414.425 44.2667 414.425 45.36C414.425 46.4 414.705 47.3467 415.265 48.2C415.825 49.0267 416.598 49.6667 417.585 50.12C418.598 50.5733 419.745 50.8 421.025 50.8C422.118 50.8 423.091 50.7067 423.945 50.52C424.825 50.3067 425.598 50.04 426.265 49.72C426.958 49.4 427.558 49.04 428.065 48.64L431.545 53.12C430.185 54.08 428.611 54.8667 426.825 55.48C425.038 56.0933 423.025 56.4 420.785 56.4ZM446.966 50.52L445.046 45.72L457.966 34.76H466.526L446.966 50.52ZM441.246 56V26.4H447.366V56H441.246ZM458.726 56L449.326 44.8L453.686 41.28L466.286 56H458.726Z" fill="#00360D"/>
<rect y="14.991" width="55" height="68" rx="11" transform="rotate(-15.4117 0 14.991)" fill="#6CEF75"/>
<rect x="35.5205" y="3" width="55" height="68" rx="11" transform="rotate(0.903219 35.5205 3)" fill="#4CE500"/>
<rect x="74.9009" width="55" height="68" rx="11" transform="rotate(17.5038 74.9009 0)" fill="#026900"/>
</svg>
